<svg width="14" height="13" viewBox="0 0 14 13" fill="none" xmlns="http://www.w3.org/2000/svg">
<path d="M10 0.343262C8.78334 0.343262 7.67334 0.943262 7.00001 1.90326C6.32668 0.943262 5.21668 0.343262 4.00001 0.343262C1.97668 0.343262 0.333344 1.9866 0.333344 4.00993C0.333344 4.98993 0.713343 5.90993 1.40668 6.60326L7.00001 12.1966L12.5933 6.60326C13.2867 5.90993 13.6667 4.98993 13.6667 4.00993C13.6667 1.9866 12.0233 0.343262 10 0.343262ZM11.8867 5.8966L7.00001 10.7833L2.11334 5.8966C1.61001 5.39326 1.33334 4.72326 1.33334 4.00993C1.33334 2.53993 2.53001 1.34326 4.00001 1.34326C5.14668 1.34326 6.16001 2.07326 6.52668 3.15993C6.59668 3.36326 6.78668 3.49993 7.00001 3.49993C7.21334 3.49993 7.40668 3.36326 7.47334 3.15993C7.84001 2.07326 8.85334 1.34326 10 1.34326C11.47 1.34326 12.6667 2.53993 12.6667 4.00993C12.6667 4.72326 12.39 5.39326 11.8867 5.8966Z" fill="#0A0909"/>
</svg>
