<svg width="314" height="240" viewBox="0 0 314 240" fill="none" xmlns="http://www.w3.org/2000/svg">
<g clip-path="url(#clip0_4015_1300)">
<path d="M238.873 57.3249C240.905 59.0263 244.78 65.6879 241.798 73.8575C238.958 80.9889 216.048 127.373 215.386 127.939C213.872 129.119 213.73 130.962 202.471 134.167C200.814 134.781 199.252 137.377 199.205 139.597" fill="#F3F4F6"/>
<path d="M238.873 57.3249C239.667 57.8868 240.313 58.6464 240.898 59.4353C241.481 60.2332 241.94 61.1119 242.368 62.0109C243.187 63.8269 243.646 65.816 243.779 67.8432C243.907 69.8772 243.653 71.9269 243.056 73.9137L242.953 74.2891L242.825 74.6487L242.564 75.3566C242.388 75.8151 242.217 76.2736 242.032 76.7209L240.932 79.4134C237.939 86.5425 234.693 93.53 231.347 100.475C227.991 107.413 224.514 114.29 220.864 121.087C219.957 122.79 219.019 124.476 218.073 126.168L217.344 127.436L216.962 128.081L216.75 128.42C216.75 128.42 216.606 128.65 216.489 128.784C216.428 128.859 216.363 128.928 216.295 128.993C216.25 129.038 216.262 129.023 216.246 129.036L216.217 129.059C216.061 129.171 215.92 129.292 215.755 129.443L215.204 129.949C214.799 130.308 214.347 130.641 213.896 130.937C212.985 131.522 212.053 131.956 211.117 132.326C210.183 132.706 209.245 133.014 208.304 133.306C206.42 133.873 204.525 134.322 202.626 134.722L202.669 134.709C202.252 134.823 201.822 135.089 201.44 135.424C201.055 135.761 200.711 136.163 200.411 136.603C199.804 137.478 199.354 138.496 199.201 139.599C199.153 139.044 199.205 138.476 199.322 137.92C199.441 137.365 199.619 136.817 199.862 136.293C200.11 135.772 200.414 135.268 200.796 134.805C201.181 134.347 201.645 133.915 202.266 133.628L202.308 133.614C204.109 132.938 205.903 132.264 207.638 131.504C208.502 131.122 209.362 130.733 210.172 130.292C210.984 129.859 211.772 129.402 212.434 128.872C212.762 128.605 213.066 128.335 213.352 128.025L213.824 127.512C214 127.323 214.207 127.112 214.425 126.921L214.466 126.885C214.466 126.885 214.511 126.849 214.482 126.865C214.45 126.881 214.419 126.901 214.389 126.923C214.338 126.957 214.272 127.079 214.324 126.984L214.47 126.696L214.776 126.072L215.389 124.782L217.839 119.57C221.107 112.607 224.445 105.671 227.856 98.7757C231.261 91.8781 234.757 85.0164 238.263 78.184L239.561 75.6218L240.196 74.3453L240.495 73.7227L240.642 73.4148L240.756 73.1024C240.905 72.6844 241.085 72.2753 241.211 71.8438C241.328 71.41 241.474 70.9785 241.576 70.538C241.657 70.0952 241.765 69.6525 241.828 69.203C241.868 68.7535 241.956 68.3017 241.976 67.8455C242.109 66.0227 241.884 64.1708 241.416 62.3593C241.155 61.4625 240.842 60.5703 240.426 59.7185C240.014 58.8667 239.523 58.0441 238.873 57.3271V57.3249Z" fill="#8393B0"/>
<path d="M232.027 177.506C236.192 177.506 267.436 178.677 262.879 181.147C268.345 181.147 284.75 180.628 287.484 182.446C290.218 184.266 270.69 184.527 266.394 184.266C261.709 184.006 260.406 185.307 262.359 185.565C264.313 185.826 262.771 187.208 257.469 187.737C254.453 188.038 235.245 191.569 154.555 186.876C121.602 184.961 92.8115 186.968 90.5204 186.898C85.0539 186.734 41.4433 185.954 37.6669 185.824C33.8928 185.694 19.701 185.824 21.5239 184.914C23.3468 184.003 50.4229 183.165 51.0755 182.219C51.7259 181.273 51.3366 171.784 53.1595 169.963C54.9824 168.143 56.2922 176.863 56.1527 181.533C56.8031 169.833 54.3298 137.201 56.9336 133.432C59.5375 129.661 63.7032 155.274 62.9223 176.205C64.8757 168.534 68.3888 162.814 70.6033 161.773C72.8156 160.733 67.8689 178.544 65.7872 181.664C76.0721 179.063 110.503 176.863 97.7289 181.702C87.2594 184.361 145.093 181.158 146.525 180.639C147.956 180.12 196.894 178.27 201.71 179.699C206.526 181.129 195.969 175.422 196.489 174.514C197.008 173.604 201.046 173.215 203.908 177.245C202.347 173.604 201.435 169.055 201.827 168.275C202.218 167.495 205.473 171.525 206.254 174.905C206.515 170.615 201.696 154.754 202.738 151.244C203.78 147.733 209.116 159.373 210.809 173.085C209.897 157.224 208.855 139.024 210.809 135.774C212.762 132.524 218.49 157.876 216.536 174.256C218.229 166.196 220.441 155.795 223.045 154.496C225.649 153.197 228.903 166.066 226.691 176.726C227.341 178.677 228.513 180.106 228.903 177.897C229.294 175.688 232.027 165.547 235.152 163.987C238.276 162.427 234.633 175.427 233.852 176.079C233.071 176.728 232.029 177.508 232.029 177.508L232.027 177.506Z" fill="#C0CCD4"/>
<path d="M116.712 191.568C125.467 191.568 132.565 190.684 132.565 189.593C132.565 188.502 125.467 187.617 116.712 187.617C107.957 187.617 100.859 188.502 100.859 189.593C100.859 190.684 107.957 191.568 116.712 191.568Z" fill="#C0CCD4"/>
<path d="M102.671 178.283C102.671 179.066 105.32 179.702 108.586 179.702C111.851 179.702 114.5 179.068 114.5 178.283C114.5 177.499 111.851 176.865 108.586 176.865C105.32 176.865 102.671 177.499 102.671 178.283Z" fill="#C0CCD4"/>
<path d="M154.708 118.369C159.49 108.548 150.835 107.694 153.774 95.319C157.656 85.9222 180.661 39.9157 180.661 39.9157C181.986 37.9806 187.192 33.0698 196.932 35.8612C205.491 38.747 226.677 46.3144 238.873 57.3249C240.905 59.0263 244.78 65.6879 241.798 73.8576C238.958 80.9889 216.048 127.373 215.386 127.939C213.872 129.119 213.73 130.962 202.47 134.167C200.814 134.781 199.252 137.377 199.205 139.597L154.71 118.369H154.708Z" fill="#F3F4F6"/>
<path d="M199.763 140.507L153.931 118.641L154.186 118.118C156.524 113.317 155.543 110.881 154.305 107.797C153.099 104.799 151.733 101.401 153.209 95.1864L153.236 95.0988C157.082 85.7896 179.909 40.118 180.141 39.6573L180.181 39.5898C182.121 36.7557 187.865 32.663 197.092 35.3061C216.158 41.734 230.733 49.1957 239.262 56.8956C241.492 58.7633 245.395 65.6991 242.341 74.0554C239.838 80.3371 216.741 127.539 215.76 128.378C215.508 128.573 215.308 128.778 215.073 129.016C213.818 130.286 212.101 132.023 202.651 134.718C201.217 135.266 199.826 137.635 199.781 139.611L199.761 140.505L199.763 140.507ZM155.477 118.095L198.708 138.721C199.075 136.496 200.6 134.244 202.27 133.626L202.313 133.612C211.491 130.998 213.154 129.317 214.252 128.205C214.486 127.969 214.709 127.744 214.972 127.53C216.354 125.476 238.594 80.3416 241.261 73.6463C244.098 65.8767 240.556 59.4893 238.501 57.7699C230.071 50.1599 215.638 42.7791 196.745 36.4119C186.267 33.4114 181.556 39.6528 181.158 40.2147C180.388 41.7542 158.16 86.2481 154.325 95.5011C152.952 101.329 154.242 104.536 155.381 107.368C156.578 110.346 157.712 113.166 155.477 118.098V118.095Z" fill="#8393B0"/>
<path d="M203.756 40.7833C207.379 42.0621 211.401 43.7095 215.569 45.6626C229.463 52.1736 239.714 59.6061 238.465 62.2649C237.642 64.018 232.029 63.2583 224.319 60.6737" fill="#F3F4F6"/>
<path d="M235.702 63.7842C232.409 63.7842 227.472 62.3436 224.136 61.2243C223.832 61.1232 223.67 60.795 223.772 60.4916C223.873 60.1882 224.202 60.0242 224.505 60.1275C234.295 63.4089 237.576 62.7998 237.943 62.0199C238.283 61.3007 237.023 59.2578 232.357 55.8775C228.061 52.7625 222.012 49.3215 215.325 46.1885C211.324 44.3141 207.257 42.6352 203.564 41.3316C203.263 41.226 203.105 40.8956 203.211 40.5945C203.317 40.2933 203.647 40.136 203.949 40.2416C207.73 41.5766 211.722 43.224 215.814 45.1434C222.565 48.3079 228.682 51.787 233.035 54.9448C237.741 58.3588 239.744 60.9052 238.987 62.5166C238.555 63.4359 237.329 63.7887 235.699 63.7887L235.702 63.7842Z" fill="#8393B0"/>
<path d="M202.023 129.764C204.825 128.312 210.858 124.703 212.137 119.567Z" fill="#F3F4F6"/>
<path d="M202.023 130.342C201.813 130.342 201.611 130.227 201.507 130.03C201.361 129.746 201.471 129.396 201.755 129.25C204.915 127.613 210.395 124.161 211.574 119.426C211.65 119.116 211.963 118.927 212.276 119.003C212.587 119.08 212.776 119.394 212.699 119.704C211.41 124.88 205.623 128.551 202.288 130.277C202.203 130.322 202.113 130.342 202.023 130.342Z" fill="#8393B0"/>
<path d="M95.4086 141.227C85.3285 143.512 52.948 152.192 44.8191 160.73C36.6902 169.269 52.948 169.828 58.4145 166.749C63.8811 163.67 93.0366 144.773 96.6802 144.773C100.324 144.773 98.1993 141.881 95.4086 141.227Z" fill="#F3F4F6"/>
<path d="M50.18 169.037C46.9798 169.037 43.9438 168.352 42.6543 166.7C41.7676 165.563 41.349 163.535 44.4007 160.333C52.498 151.828 83.8748 143.252 95.2805 140.662L95.411 140.633L95.5415 140.665C97.396 141.098 99.3494 142.559 99.1874 143.962C99.1266 144.481 98.7215 145.353 96.6826 145.353C94.1867 145.353 77.3821 155.763 67.3425 161.985C63.3433 164.461 60.1858 166.419 58.7005 167.255C56.756 168.349 53.3848 169.039 50.18 169.039V169.037ZM95.4043 141.822C84.7188 144.258 53.0674 152.909 45.2401 161.131C43.8695 162.569 42.4675 164.58 43.568 165.99C45.5934 168.583 54.3412 168.383 58.1311 166.246C59.5939 165.421 62.7424 163.47 66.7304 161C81.0234 152.145 94.0697 144.196 96.6803 144.196C97.6435 144.196 98.0171 143.975 98.0351 143.829C98.0869 143.377 97.0156 142.245 95.402 141.822H95.4043Z" fill="#405B89"/>
<path d="M44.8191 160.73C36.6902 169.269 52.948 169.828 58.4145 166.749C63.8811 163.67 93.0366 144.773 96.6802 144.773" fill="#F3F4F6"/>
<path d="M44.8193 160.73L44.1824 161.555C43.9978 161.847 43.7953 162.128 43.6287 162.425C43.2889 163.016 43.0166 163.646 42.9153 164.282C42.8163 164.92 42.9581 165.538 43.3339 166.001C43.703 166.473 44.2566 166.806 44.8485 167.053C46.0525 167.534 47.4006 167.713 48.7374 167.767C50.081 167.81 51.4335 167.74 52.7659 167.554C53.4298 167.448 54.0914 167.338 54.7373 167.172C55.3855 167.017 56.0224 166.839 56.6277 166.608C56.9361 166.5 57.2219 166.365 57.5122 166.235L57.9218 166.017C58.0591 165.942 58.2121 165.846 58.3561 165.76C58.9413 165.41 59.5264 165.041 60.1138 164.675L67.1737 160.259C69.5435 158.809 71.9133 157.352 74.2988 155.923C76.6979 154.516 79.0857 153.087 81.523 151.74C83.9491 150.374 86.4022 149.052 88.8957 147.801C90.147 147.185 91.4051 146.576 92.6901 146.023C93.0097 145.883 93.3338 145.749 93.6601 145.62C93.9842 145.488 94.3105 145.362 94.6413 145.247C95.3007 145.029 95.9781 144.782 96.6825 144.773C95.9939 144.881 95.375 145.214 94.7561 145.519C94.4455 145.672 94.1395 145.832 93.8379 146C93.5341 146.162 93.2325 146.333 92.9309 146.508C91.7291 147.198 90.5386 147.904 89.3616 148.639C86.994 150.08 84.6557 151.576 82.304 153.049L75.2666 157.499L68.2022 161.917C65.8279 163.362 63.4693 164.83 61.0703 166.25C60.4671 166.601 59.864 166.952 59.2451 167.298C59.0876 167.383 58.9435 167.469 58.7725 167.556L58.2526 167.812C57.9038 167.956 57.555 168.105 57.2039 168.217C55.7996 168.702 54.3705 168.925 52.9414 169.064C51.5101 169.179 50.0742 169.199 48.6451 169.04C47.2206 168.869 45.7847 168.583 44.4457 167.918C43.7908 167.567 43.1471 167.104 42.7173 166.43C42.2739 165.763 42.1771 164.893 42.3909 164.176C42.8208 162.735 43.8065 161.668 44.8215 160.73H44.8193Z" fill="#405B89"/>
<path d="M124.294 173.049C126.338 190.829 120.624 198.302 114.797 198.985C113.447 199.143 112.465 200.329 112.578 201.682C112.839 204.824 113.289 210.942 113.555 213.363C113.593 213.718 113.798 214.037 114.113 214.208C115.08 214.736 115.742 215.824 116.647 216.662C121.911 221.552 116.586 221.526 114.081 221.55C112.666 221.564 110.951 221.514 109.072 221.323C109.004 221.316 108.932 221.305 108.867 221.287C105.225 220.355 106.288 216.999 106.999 214.871C107.611 213.039 105.743 190.042 105.183 183.581C105.113 182.781 105.921 182.199 106.657 182.518C106.666 182.522 106.673 182.525 106.682 182.529C108.376 183.293 110.242 181.911 109.934 180.079C107.444 165.295 108.763 157.229 110.492 152.871C110.492 152.871 123.149 163.063 124.296 173.047L124.294 173.049Z" fill="#E1E5ED"/>
<path d="M113.647 222.13C112.092 222.13 110.537 222.054 109.013 221.899C108.918 221.89 108.817 221.872 108.725 221.847C107.492 221.532 106.625 220.925 106.144 220.047C105.223 218.359 105.961 216.149 106.45 214.689C106.916 213.291 105.653 195.686 104.606 183.633C104.557 183.05 104.809 182.5 105.282 182.16C105.754 181.821 106.355 181.758 106.889 181.99L106.931 182.008C107.532 182.28 108.21 182.203 108.732 181.801C109.234 181.414 109.47 180.807 109.364 180.176C107.323 168.055 107.523 158.798 109.954 152.657L110.244 151.927L110.856 152.421C111.381 152.844 123.711 162.879 124.872 172.982C126.999 191.483 120.812 198.862 114.869 199.558C113.825 199.682 113.073 200.592 113.161 201.633C113.239 202.572 113.334 203.775 113.435 205.067C113.676 208.133 113.951 211.607 114.137 213.297C114.155 213.47 114.252 213.621 114.396 213.7C115.101 214.084 115.643 214.702 116.167 215.3C116.449 215.621 116.739 215.952 117.047 216.239C119.046 218.096 119.782 219.462 119.363 220.539C118.762 222.087 116.021 222.112 114.205 222.128H114.092C113.946 222.13 113.8 222.13 113.651 222.13H113.647ZM106.229 183.012C106.096 183.012 106 183.068 105.955 183.1C105.887 183.147 105.736 183.286 105.757 183.534C105.86 184.729 108.288 212.828 107.546 215.055C107.12 216.327 106.479 218.249 107.159 219.494C107.483 220.089 108.088 220.492 109.009 220.728C109.047 220.737 109.09 220.743 109.128 220.748C110.75 220.912 112.416 220.988 114.074 220.97H114.187C115.314 220.959 117.957 220.934 118.274 220.119C118.35 219.919 118.434 219.114 116.248 217.084C115.895 216.756 115.585 216.403 115.285 216.06C114.806 215.513 114.356 214.999 113.831 214.713C113.357 214.455 113.037 213.972 112.976 213.423C112.787 211.717 112.515 208.231 112.272 205.159C112.17 203.869 112.076 202.667 111.997 201.729C111.86 200.064 113.057 198.605 114.725 198.41C120.14 197.776 125.743 190.771 123.713 173.114C122.75 164.733 113.275 156.035 110.741 153.846C109.254 158.13 108.147 166.023 110.498 179.987C110.676 181.046 110.278 182.068 109.432 182.72C108.579 183.376 107.431 183.509 106.436 183.059C106.357 183.026 106.288 183.012 106.225 183.012H106.229Z" fill="#405B89"/>
<path d="M95.4762 212.371C95.1634 209.535 94.6346 203.321 94.3285 199.628C94.198 198.068 95.3142 196.661 96.8716 196.482C103.715 195.693 112.783 192.299 112.159 171.244" fill="#F3F4F6"/>
<path d="M95.4762 212.371C94.2856 208.279 93.5002 204.125 92.8183 199.956L92.7868 199.761L92.762 199.464C92.7418 199.264 92.7575 199.064 92.762 198.862C92.798 198.459 92.8746 198.057 93.0119 197.673C93.2887 196.904 93.777 196.205 94.4297 195.679C94.7538 195.414 95.1206 195.189 95.5122 195.025C95.708 194.937 95.9105 194.872 96.1176 194.814C96.2211 194.782 96.3246 194.767 96.4304 194.744L96.7117 194.695C97.1978 194.616 97.6817 194.531 98.152 194.423C100.038 194.016 101.791 193.389 103.292 192.409C106.337 190.505 108.302 187.136 109.555 183.365C110.822 179.576 111.444 175.449 112.159 171.242C112.641 173.328 112.9 175.456 112.983 177.609C113.06 179.762 112.936 181.945 112.537 184.127C112.436 184.671 112.308 185.215 112.177 185.761C112.022 186.3 111.878 186.844 111.68 187.379C111.327 188.458 110.838 189.507 110.262 190.526C109.684 191.539 108.986 192.51 108.171 193.391C107.35 194.263 106.414 195.045 105.403 195.699C104.384 196.342 103.297 196.866 102.183 197.252C101.064 197.628 99.9322 197.9 98.8069 198.064C98.2443 198.149 97.6839 198.205 97.1281 198.253L97.02 198.264C96.9953 198.268 96.9683 198.262 96.9458 198.271C96.8985 198.28 96.8467 198.282 96.7995 198.297C96.7005 198.318 96.6059 198.356 96.5159 198.412C96.3291 198.516 96.1693 198.689 96.0501 198.891C95.9893 198.992 95.9488 199.104 95.9105 199.223C95.9038 199.284 95.879 199.343 95.879 199.406L95.8678 199.502L95.8723 199.698C95.942 203.892 95.9105 208.099 95.4739 212.367L95.4762 212.371Z" fill="#405B89"/>
<path d="M165.083 167.03C167.185 172.698 191.587 194.378 186.255 220.426C189.62 220.986 201.802 221.337 201.802 220.426C201.802 219.516 198.228 213.637 195.494 213.428C195.285 207.548 191.573 168.848 186.107 158.771" fill="#E1E5ED"/>
<path d="M196.421 221.561C192.483 221.561 187.718 221.256 186.161 220.997L185.569 220.898L185.688 220.31C189.737 200.523 176.241 183.077 168.992 173.708C166.705 170.752 165.056 168.619 164.54 167.23C164.43 166.931 164.583 166.599 164.882 166.486C165.184 166.376 165.515 166.529 165.627 166.828C166.082 168.051 167.77 170.235 169.91 173C177.202 182.423 190.709 199.884 186.944 219.941C190.588 220.411 199.333 220.604 201.149 220.157C200.63 218.788 197.618 214.169 195.453 214.003L194.938 213.963L194.92 213.446C194.679 206.717 190.847 168.709 185.603 159.043C185.45 158.762 185.556 158.411 185.837 158.258C186.118 158.105 186.469 158.211 186.622 158.492C192.093 168.579 195.701 206.002 196.059 212.938C199.029 213.74 202.387 219.249 202.387 220.422C202.387 220.631 202.293 220.824 202.124 220.968C201.611 221.402 199.227 221.557 196.428 221.557L196.421 221.561Z" fill="#405B89"/>
<path d="M114.102 170.554C123.671 183.192 178.714 186.626 190.383 170.249C199.315 157.478 198.856 140.557 197.859 122.745" fill="#F3F4F6"/>
<path d="M114.102 170.554C115.027 171.559 116.102 172.382 117.257 173.067C118.405 173.761 119.62 174.337 120.86 174.84C123.349 175.84 125.93 176.596 128.548 177.184C131.163 177.789 133.809 178.254 136.474 178.596C139.139 178.935 141.81 179.203 144.49 179.356C149.847 179.681 155.221 179.657 160.548 179.261C163.208 179.045 165.859 178.767 168.474 178.322C171.092 177.897 173.68 177.344 176.184 176.593C178.696 175.865 181.124 174.926 183.346 173.717C185.562 172.516 187.559 170.99 188.922 169.096C189.616 168.012 190.39 166.981 190.977 165.821L191.45 164.972C191.61 164.691 191.767 164.407 191.898 164.108L192.726 162.344C192.874 162.054 192.985 161.746 193.102 161.443L193.455 160.53L193.811 159.616C193.934 159.312 194.013 158.993 194.121 158.683L194.727 156.809L195.226 154.894L195.471 153.934L195.674 152.961C195.807 152.311 195.953 151.664 196.077 151.01C196.279 149.695 196.529 148.385 196.682 147.054C197.065 144.405 197.236 141.717 197.411 139.024C197.729 133.63 197.731 128.193 197.864 122.743C198.597 128.144 199.111 133.569 199.331 139.047L199.365 141.103C199.376 141.788 199.385 142.476 199.365 143.162L199.331 145.225C199.311 145.913 199.266 146.603 199.232 147.293C199.192 148.673 199.007 150.05 198.881 151.43C198.795 152.12 198.685 152.806 198.586 153.496L198.433 154.53L198.226 155.557C197.74 158.31 196.907 161.014 195.913 163.661L195.087 165.621C195.015 165.783 194.952 165.949 194.875 166.109L194.63 166.583L194.139 167.531C193.527 168.817 192.708 169.999 191.963 171.222C191.096 172.512 190.018 173.622 188.875 174.586C187.727 175.553 186.496 176.375 185.227 177.09C182.679 178.504 180.004 179.542 177.296 180.342C171.868 181.922 166.316 182.662 160.782 182.956C158.014 183.084 155.243 183.125 152.482 183.019C149.721 182.931 146.964 182.725 144.223 182.41C138.74 181.778 133.303 180.706 128.037 179.025C125.419 178.144 122.829 177.144 120.396 175.816C119.185 175.146 118.006 174.411 116.919 173.55C115.846 172.68 114.846 171.701 114.102 170.554Z" fill="#405B89"/>
<path d="M200.188 119.646C212.526 116.798 235.071 106.781 223.432 68.0275C223.117 66.9825 221.944 66.4588 220.945 66.9015L192.334 79.6C191.846 79.818 191.281 79.818 190.804 79.5797C186.755 77.5435 182.571 74.0239 179.859 75.6488C177.928 76.8063 173.013 80.8631 168.67 86.4998C166.768 88.9676 165.947 92.1006 166.347 95.1909C166.869 99.2117 167.592 104.887 165.969 111.02C161.578 127.604 137.57 142.831 96.9637 141.067C94.7514 140.97 92.7035 142.272 91.8865 144.328C89.861 149.434 88.3104 156.91 91.2136 174.209C91.5737 176.357 89.4087 178.052 87.4125 177.171L87.3832 177.157C86.519 176.782 85.5715 177.465 85.6526 178.405C86.312 185.988 88.5017 211.987 87.7838 214.136C86.9511 216.633 85.7043 220.573 89.9758 221.665C90.0523 221.685 90.1379 221.699 90.2166 221.708C92.4244 221.93 94.4341 221.989 96.095 221.973C99.0319 221.946 104.111 222.535 99.1039 216.237C98.1947 215.093 97.2495 213.956 96.0995 213.34C95.7417 213.149 95.5211 212.78 95.4783 212.376C95.1655 209.54 94.6366 203.325 94.3306 199.633C94.2 198.073 95.3163 196.666 96.8737 196.486C103.718 195.697 112.785 192.303 112.161 171.249C112.13 170.192 113.465 169.716 114.104 170.559C123.673 183.197 178.716 186.631 190.385 170.253C199.317 157.483 198.858 140.561 197.861 122.75C197.78 121.284 198.762 119.981 200.193 119.651L200.188 119.646Z" fill="#F3F4F6"/>
<path d="M221.688 66.742C222.462 66.742 223.193 67.2342 223.432 68.0276C235.074 106.784 212.526 116.801 200.191 119.646C198.759 119.976 197.778 121.28 197.859 122.745C198.856 140.557 199.318 157.481 190.383 170.249C184.86 178 169.622 181.313 154.084 181.313C136.796 181.313 119.14 177.209 114.102 170.554C113.874 170.255 113.561 170.123 113.251 170.123C112.688 170.123 112.139 170.563 112.159 171.244C112.783 192.299 103.715 195.695 96.8716 196.482C95.3142 196.661 94.1979 198.068 94.3285 199.628C94.6345 203.321 95.1634 209.535 95.4762 212.371C95.5212 212.774 95.7418 213.142 96.0974 213.336C97.2474 213.951 98.1926 215.091 99.1018 216.233C103.421 221.665 100.236 221.973 97.3937 221.973C97.0291 221.973 96.6713 221.968 96.3337 221.968C96.2527 221.968 96.1716 221.968 96.0906 221.968C95.9241 221.968 95.7553 221.971 95.582 221.971C94.0246 221.971 92.1972 221.903 90.2123 221.703C90.1335 221.694 90.048 221.681 89.9715 221.66C85.7 220.568 86.9445 216.628 87.7794 214.131C88.4974 211.98 86.3054 185.981 85.6482 178.4C85.5829 177.641 86.1883 177.05 86.8815 177.05C87.0458 177.05 87.2146 177.083 87.3789 177.155L87.4081 177.169C87.7772 177.333 88.153 177.407 88.5176 177.407C90.12 177.407 91.5018 175.957 91.2092 174.207C88.3061 156.907 89.8567 149.432 91.8821 144.326C92.6698 142.341 94.6053 141.06 96.7298 141.06C96.8063 141.06 96.8828 141.06 96.9593 141.065C99.1198 141.159 101.235 141.204 103.301 141.204C140.066 141.204 161.808 126.719 165.965 111.018C167.59 104.884 166.865 99.2095 166.343 95.1887C165.942 92.0984 166.762 88.9676 168.665 86.4976C173.009 80.8608 177.924 76.8041 179.855 75.6466C180.339 75.3567 180.87 75.2308 181.439 75.2308C184.057 75.2308 187.475 77.9054 190.802 79.5775C191.045 79.7011 191.312 79.7596 191.578 79.7596C191.844 79.7596 192.091 79.7056 192.332 79.5977L220.943 66.8993C221.186 66.7914 221.438 66.742 221.686 66.742M221.688 65.5845C221.267 65.5845 220.86 65.6722 220.473 65.843L191.862 78.5414C191.772 78.5819 191.673 78.6021 191.58 78.6021C191.488 78.6021 191.4 78.5819 191.324 78.5436C190.358 78.0582 189.357 77.4693 188.389 76.8985C185.92 75.4443 183.589 74.0734 181.442 74.0734C180.638 74.0734 179.905 74.2689 179.261 74.6555C177.157 75.9163 172.17 80.054 167.75 85.7919C165.688 88.4686 164.756 91.9478 165.197 95.337C165.715 99.3196 166.422 104.772 164.846 110.721C160.982 125.319 140.453 140.047 103.301 140.047C101.242 140.047 99.1266 139.999 97.0088 139.907C96.9166 139.903 96.822 139.901 96.7298 139.901C94.0944 139.901 91.7674 141.469 90.8064 143.897C88.7719 149.028 87.0908 156.662 90.066 174.395C90.1447 174.865 90.021 175.321 89.7194 175.679C89.4178 176.036 88.9677 176.247 88.5176 176.247C88.3016 176.247 88.0878 176.2 87.8785 176.108L87.8492 176.094C87.5341 175.957 87.2123 175.89 86.8837 175.89C86.2153 175.89 85.5717 176.173 85.1171 176.67C84.658 177.169 84.4374 177.818 84.4982 178.499C86.2266 198.417 87.084 212.266 86.6812 213.778C86.1231 215.451 85.1801 218.271 86.3616 220.433C86.9918 221.586 88.1103 222.377 89.6901 222.78C89.8207 222.813 89.9624 222.838 90.102 222.852C91.9001 223.034 93.7456 223.126 95.5888 223.126C95.7665 223.126 95.9398 223.126 96.1086 223.124C96.1851 223.124 96.2617 223.124 96.3404 223.124C96.5025 223.124 96.669 223.124 96.84 223.126C97.0223 223.126 97.2114 223.128 97.3982 223.128C98.8565 223.128 101.298 223.128 102.131 221.404C102.802 220.015 102.149 218.197 100.013 215.511C98.9938 214.23 97.9698 213.021 96.6488 212.313C96.6488 212.313 96.6352 212.288 96.6307 212.243C96.3157 209.393 95.7778 203.056 95.4852 199.531C95.4065 198.587 96.0884 197.736 97.0066 197.63C100.139 197.268 104.71 196.315 108.201 192.211C111.905 187.858 113.582 181.061 113.325 171.44C116.636 175.604 123.768 178.144 129.212 179.549C136.515 181.432 145.35 182.468 154.087 182.468C162.364 182.468 170.045 181.547 176.301 179.801C183.503 177.791 188.56 174.802 191.328 170.918C195.498 164.958 198.006 157.631 198.998 148.511C199.891 140.303 199.516 131.607 199.016 122.678C198.967 121.777 199.57 120.974 200.45 120.77C207.856 119.059 217.864 114.994 223.486 105.327C228.894 96.027 229.25 83.3645 224.541 67.6904C224.163 66.4296 223.016 65.5823 221.688 65.5823V65.5845Z" fill="#405B89"/>
<path d="M154.431 174.238C156.533 179.906 166.554 204.613 163.822 221.971C167.187 222.53 178.82 222.881 178.82 221.971C178.82 221.06 175.246 215.181 172.512 214.972C172.302 209.092 178.539 179.906 173.072 169.828" fill="#F3F4F6"/>
<path d="M173.659 223.103C169.869 223.103 165.272 222.8 163.725 222.541L163.161 222.447L163.248 221.881C165.778 205.818 157.215 183.228 154.402 175.804C154.199 175.272 154.026 174.813 153.886 174.44C153.776 174.141 153.929 173.809 154.228 173.696C154.53 173.586 154.861 173.739 154.973 174.038C155.11 174.411 155.284 174.865 155.484 175.395C158.29 182.801 166.768 205.164 164.479 221.485C168.053 221.953 176.409 222.153 178.167 221.708C177.654 220.346 174.638 215.716 172.469 215.549L171.953 215.509L171.935 214.992C171.877 213.338 172.302 209.973 172.842 205.712C174.278 194.382 176.448 177.261 172.565 170.103C172.412 169.822 172.518 169.471 172.8 169.318C173.081 169.168 173.432 169.271 173.585 169.552C177.645 177.038 175.446 194.38 173.992 205.858C173.506 209.69 173.115 212.787 173.09 214.489C176.056 215.307 179.4 220.797 179.4 221.971C179.4 222.18 179.306 222.375 179.135 222.521C178.628 222.95 176.346 223.103 173.661 223.103H173.659Z" fill="#405B89"/>
<path d="M191.454 136.972C178.322 136.972 171.249 142.813 171.249 150.462C171.249 159.519 176.283 171.779 187.565 173.202C188.67 172.298 189.62 171.318 190.381 170.249C196.894 160.937 198.44 149.922 198.417 137.768C196.214 137.251 193.876 136.97 191.452 136.97L191.454 136.972Z" fill="#FF7E56"/>
<path d="M198.3 141.712C194.641 138.339 186.519 134.587 177.334 130.286C170.344 127.011 163.845 124.458 159.011 122.986C157.894 124.173 158 124.211 156.645 125.323L198.206 144.418C198.532 141.836 198.206 144.418 198.298 141.712H198.3Z" fill="#E1E5ED"/>
<path d="M96.948 141.063C94.729 140.966 92.6945 142.272 91.8776 144.335C90.399 148.063 89.1792 153.06 89.7553 162.214C90.2595 162.248 90.7658 162.27 91.2789 162.27C102.7 162.27 111.959 153.716 111.959 143.164C111.959 142.375 111.9 141.6 111.801 140.836C107.19 141.197 102.252 141.294 96.948 141.063Z" fill="#FF7E56"/>
<path d="M220.945 66.8993L209.668 71.9045C211.41 76.8535 215.629 80.3506 220.567 80.3506C222.505 80.3506 224.33 79.8022 225.941 78.8493C225.417 75.514 224.6 71.9179 223.43 68.0275C223.115 66.9824 221.942 66.4565 220.943 66.9015L220.945 66.8993Z" fill="#405B89"/>
<path d="M148.125 148.131C153.803 148.131 153.371 143.928 153.371 136.66C153.371 133.886 152.687 131.331 151.541 129.211C146.516 132.558 140.282 135.406 132.875 137.482C133.575 144.238 142.667 148.131 148.125 148.131Z" fill="#FF7E56"/>
<path d="M175.588 79.0089C173.479 80.9192 170.992 83.4791 168.668 86.4975C166.766 88.9653 165.945 92.0983 166.345 95.1886C166.867 99.2094 167.59 104.884 165.967 111.018C165.895 111.292 165.803 111.564 165.719 111.838C167.115 112.207 168.575 112.418 170.09 112.418C179.58 112.418 187.273 104.736 187.273 95.2583C187.273 87.7045 182.378 81.3058 175.59 79.0133L175.588 79.0089Z" fill="#FF7E56"/>
<path d="M161.5 87.909C162.695 89.0709 191.747 113.281 192.123 116.558C192.498 119.835 189.496 138.705 187.273 138.952C185.049 139.202 166.604 130.895 165.188 126.06C163.771 121.226 161.502 87.9067 161.502 87.9067L161.5 87.909Z" fill="#E1E5ED"/>
<path d="M164.218 117.515C168.116 122.489 189.901 121.574 189.534 118.129C189.165 114.684 168.832 91.478 165.719 91.4556" fill="#F3F4F6"/>
<path d="M164.218 117.515C164.718 117.958 165.287 118.266 165.884 118.498C166.478 118.734 167.092 118.909 167.718 119.041C168.967 119.307 170.241 119.466 171.521 119.534C174.08 119.689 176.657 119.639 179.2 119.437C180.472 119.338 181.736 119.194 182.974 119.005C184.205 118.803 185.436 118.567 186.514 118.212C187.034 118.037 187.561 117.814 187.781 117.643C187.838 117.605 187.851 117.581 187.842 117.59C187.806 117.617 187.761 117.666 187.678 117.864C187.644 117.949 187.622 118.073 187.615 118.183C187.608 118.235 187.617 118.311 187.621 118.342C187.621 118.36 187.622 118.376 187.626 118.394C187.635 118.421 187.626 118.403 187.624 118.399C187.621 118.392 187.617 118.385 187.617 118.376L187.57 118.266C187.396 117.884 187.088 117.345 186.762 116.843C186.433 116.333 186.075 115.816 185.706 115.302C184.979 114.263 184.205 113.234 183.415 112.211C182.637 111.18 181.833 110.162 181.03 109.139C179.425 107.094 177.787 105.064 176.151 103.03C174.512 100.998 172.86 98.9734 171.184 96.9687C170.349 95.964 169.494 94.9751 168.625 93.9997C168.19 93.5142 167.743 93.04 167.272 92.5905C167.04 92.3613 166.802 92.141 166.55 91.9387C166.293 91.7432 166.034 91.5432 165.713 91.4623C166.05 91.4308 166.392 91.5499 166.703 91.6735C167.018 91.8016 167.324 91.9522 167.623 92.1118C168.215 92.4399 168.78 92.8063 169.338 93.1816C170.45 93.9345 171.503 94.7594 172.536 95.6022C174.595 97.2968 176.547 99.1038 178.435 100.969C180.323 102.835 182.135 104.774 183.888 106.772C184.766 107.77 185.614 108.797 186.46 109.831C187.293 110.878 188.11 111.939 188.902 113.045C189.291 113.602 189.676 114.171 190.052 114.771C190.426 115.38 190.795 115.971 191.139 116.801L191.267 117.151L191.33 117.367C191.351 117.441 191.369 117.502 191.389 117.61C191.407 117.706 191.423 117.805 191.436 117.902C191.45 118.014 191.452 118.174 191.45 118.306C191.445 118.578 191.382 118.868 191.299 119.107C191.119 119.621 190.858 119.931 190.612 120.206C190.372 120.446 190.133 120.635 189.915 120.776C189.037 121.336 188.306 121.552 187.572 121.761C186.123 122.138 184.745 122.323 183.366 122.424C181.991 122.532 180.627 122.545 179.268 122.505C176.553 122.41 173.855 122.089 171.215 121.424C169.903 121.066 168.596 120.666 167.36 120.064C166.746 119.761 166.145 119.421 165.591 119.014C165.051 118.592 164.54 118.109 164.216 117.522L164.218 117.515Z" fill="#5B79A3"/>
<path d="M153.351 122.525C154.413 122.368 155.5 122.476 156.553 122.588C157.615 122.705 158.66 122.887 159.702 123.08C161.781 123.485 163.829 124.006 165.854 124.595C169.901 125.782 173.848 127.261 177.699 128.978C181.541 130.706 185.288 132.682 188.832 135.012C190.601 136.183 192.325 137.431 193.939 138.826C195.543 140.224 197.08 141.739 198.303 143.483C196.498 142.362 194.693 141.361 192.859 140.415C191.029 139.465 189.177 138.568 187.318 137.687C183.604 135.918 179.85 134.237 176.094 132.54L164.792 127.467L159.125 124.903C158.178 124.478 157.23 124.047 156.276 123.635C155.799 123.426 155.32 123.224 154.836 123.031C154.352 122.828 153.868 122.653 153.351 122.523V122.525Z" fill="#405B89"/>
<path d="M161.615 94.2492C161.907 97.2204 160.321 112.542 164.218 117.513C168.116 122.487 189.901 121.572 189.535 118.127C189.165 114.681 168.832 91.4758 165.72 91.4533C162.605 91.4308 161.617 94.247 161.617 94.247L161.615 94.2492Z" fill="#F3F4F6"/>
<path d="M178.138 121.554C172.208 121.554 165.816 120.493 163.761 117.873C160.638 113.888 160.881 103.945 161.027 98.007C161.07 96.3057 161.101 94.9617 161.038 94.3099L161.025 94.1818L161.068 94.0604C161.455 92.9569 162.918 90.8802 165.683 90.8802H165.722C168.08 90.8959 176.549 100.259 179.09 103.129C180.186 104.367 189.816 115.317 190.111 118.071C190.203 118.929 189.548 119.651 188.164 120.21C186.082 121.053 182.22 121.556 178.14 121.556L178.138 121.554ZM162.204 94.3369C162.258 95.0898 162.227 96.4001 162.186 98.0318C162.053 103.437 161.808 113.499 164.675 117.158C167.565 120.846 182.605 121.21 187.727 119.136C188.67 118.754 188.979 118.387 188.958 118.192C188.808 116.785 184.192 110.638 178.221 103.893C171.411 96.2 166.694 92.0422 165.713 92.0354C165.701 92.0354 165.692 92.0354 165.681 92.0354C163.345 92.0354 162.407 93.8671 162.202 94.3369H162.204Z" fill="#405B89"/>
<path d="M143.527 166.904C143.527 169.464 141.45 171.539 138.886 171.539C136.323 171.539 134.246 169.464 134.246 166.904C134.246 164.344 136.323 162.27 138.886 162.27C141.45 162.27 143.527 164.344 143.527 166.904Z" fill="#FF7E56"/>
<path d="M152.131 118.646C151.748 118.03 151.631 117.518 151.813 117.131C152.941 114.731 165.134 118.073 179.049 124.591C192.964 131.111 203.33 138.341 202.205 140.741C202.034 141.107 201.604 141.339 200.954 141.447" fill="#F3F4F6"/>
<path d="M200.952 142.024C200.675 142.024 200.427 141.824 200.38 141.541C200.328 141.227 200.542 140.928 200.857 140.876C201.3 140.802 201.6 140.662 201.678 140.494C201.899 140.024 200.983 138.206 195.935 134.684C191.587 131.652 185.504 128.254 178.802 125.114C172.1 121.974 165.594 119.473 160.48 118.073C154.541 116.446 152.556 116.904 152.336 117.376C152.25 117.558 152.354 117.911 152.622 118.34C152.79 118.612 152.707 118.967 152.435 119.136C152.162 119.304 151.807 119.221 151.636 118.949C151.136 118.147 151.019 117.452 151.285 116.884C151.546 116.331 152.336 114.643 160.784 116.958C165.96 118.376 172.532 120.9 179.29 124.067C186.049 127.234 192.195 130.668 196.595 133.736C203.776 138.745 202.984 140.431 202.723 140.986C202.468 141.528 201.903 141.874 201.042 142.018C201.01 142.022 200.979 142.027 200.945 142.027L200.952 142.024Z" fill="#8393B0"/>
<path d="M198.303 143.485C199.995 145.106 201.345 144.097 201.649 143.452C202.777 141.051 191.486 133.037 178.142 126.784C164.799 120.532 152.259 116.906 151.132 119.307C150.747 120.127 151.332 120.761 153.351 122.525C157.417 122.491 187.896 133.52 198.305 143.485H198.303Z" fill="white"/>
<path d="M200.119 144.937C199.529 144.937 198.753 144.717 197.902 143.903C187.527 133.972 157.179 123.103 153.371 123.103C153.364 123.103 153.36 123.103 153.355 123.103H153.135L152.968 122.959C151.114 121.338 149.995 120.361 150.607 119.059C152.25 115.562 168.123 121.449 178.39 126.26C189.377 131.407 203.756 140.332 202.176 143.697C201.946 144.187 201.352 144.748 200.546 144.899C200.418 144.924 200.276 144.937 200.121 144.937H200.119ZM198.703 143.067C199.273 143.613 199.835 143.852 200.333 143.762C200.758 143.683 201.044 143.38 201.125 143.207C201.345 142.735 200.348 140.838 194.988 137.035C190.453 133.819 184.223 130.272 177.897 127.31C171.476 124.301 164.916 121.768 159.9 120.361C153.873 118.668 151.872 119.093 151.656 119.554C151.478 119.934 151.721 120.325 153.576 121.954C156.247 122.112 165.085 125.081 173.675 128.724C180.411 131.58 192.618 137.242 198.703 143.067Z" fill="#8393B0"/>
<path d="M239.726 40.6012C240.765 42.2014 242.897 43.1521 244.71 41.9475C245.138 41.662 245.419 41.1406 245.563 40.6259C246.743 40.6372 248.185 40.3585 249.466 39.5292C251.971 37.9065 255.346 33.2474 254.307 31.6449C253.267 30.0447 247.494 31.3527 244.99 32.9754C243.932 33.6609 243.407 34.6116 242.888 35.4994C242.084 35.1195 241.033 34.9825 240.38 35.4162C238.567 36.6231 238.688 39.001 239.728 40.6012H239.726Z" fill="#8393B0"/>
<path d="M240.437 40.0753C241.479 41.6755 243.279 42.3543 244.463 41.5879C244.893 41.3069 245.179 40.8732 245.32 40.3585C246.5 40.3675 247.875 39.9652 249.153 39.1358C251.658 37.5131 253.85 34.3914 252.808 32.7911C251.768 31.1909 247.891 31.7146 245.386 33.3373C244.328 34.0228 243.525 34.8858 243.005 35.7736C242.201 35.396 241.353 35.36 240.693 35.7871C239.512 36.5535 239.397 38.4728 240.437 40.0731V40.0753Z" fill="#D5E6F6"/>
<path d="M251.977 36.8097C256.692 39.0504 261.655 42.3767 256.735 43.1521C251.818 43.9253 244.798 40.9945 244.407 38.8055C244.407 38.8055 247.26 34.5689 251.977 36.8074V36.8097Z" fill="#F3F4F6"/>
<path d="M255.043 43.487C250.305 43.487 244.571 40.9271 244.2 38.8437C244.191 38.7897 244.2 38.7358 244.231 38.6909C244.26 38.6482 247.242 34.3307 252.065 36.6209C254.228 37.648 259.229 40.2349 258.965 42.0486C258.869 42.7116 258.151 43.1387 256.764 43.3567C256.215 43.4421 255.635 43.4825 255.04 43.4825L255.043 43.487ZM244.629 38.8527C245.149 40.808 251.809 43.7185 256.701 42.9476C257.849 42.7678 258.488 42.4352 258.553 41.9902C258.704 40.9541 256.087 38.9943 251.887 36.9985C247.67 34.996 245.035 38.2975 244.629 38.8527Z" fill="#A1B4D2"/>
<path d="M243.707 37.122C243.707 37.122 249.25 36.8591 248.386 31.6808C247.521 26.5003 245.559 20.5534 243.088 24.3585C240.617 28.1635 241.465 35.6612 243.707 37.122Z" fill="#F3F4F6"/>
<path d="M243.707 37.3311C243.666 37.3311 243.626 37.3198 243.592 37.2974C241.204 35.7421 240.426 28.0713 242.912 24.2461C243.554 23.2594 244.222 22.8279 244.897 22.9695C247.058 23.419 248.271 29.7255 248.593 31.6471C248.849 33.1867 248.582 34.461 247.794 35.4364C246.38 37.185 243.826 37.3266 243.718 37.3311C243.716 37.3311 243.711 37.3311 243.709 37.3311H243.707ZM244.65 23.3606C244.206 23.3606 243.741 23.7337 243.261 24.4731C240.797 28.2669 241.787 35.5016 243.763 36.9085C244.168 36.8748 246.295 36.6254 247.467 35.1712C248.176 34.2947 248.415 33.1305 248.179 31.7146C247.377 26.9094 246.056 23.6348 244.812 23.3763C244.76 23.3651 244.706 23.3606 244.652 23.3606H244.65Z" fill="#A1B4D2"/>
<path d="M240.862 41.3721C240.878 40.7293 241.684 40.2281 242.665 40.2506C243.644 40.2731 244.425 40.8125 244.411 41.4575C244.396 42.0981 243.59 42.6015 242.609 42.579C241.632 42.5565 240.849 42.0149 240.862 41.3744V41.3721Z" fill="#F3F4F6"/>
<path d="M242.674 42.7881C242.649 42.7881 242.627 42.7881 242.602 42.7881C241.492 42.7611 240.635 42.1385 240.653 41.3699C240.671 40.6012 241.546 40.0191 242.667 40.0438C243.779 40.0708 244.634 40.6934 244.618 41.4643C244.609 41.8464 244.382 42.197 243.981 42.4464C243.624 42.6689 243.162 42.7903 242.674 42.7903V42.7881ZM241.071 41.3766C241.06 41.8935 241.767 42.3498 242.613 42.37C243.045 42.3768 243.455 42.2824 243.761 42.0913C244.04 41.9183 244.195 41.6913 244.202 41.453C244.213 40.9361 243.507 40.4799 242.658 40.4596C241.823 40.4462 241.083 40.8597 241.069 41.3766H241.071Z" fill="#A1B4D2"/>
<path d="M239.044 38.6369C238.623 38.1492 238.884 37.2367 239.624 36.5984C240.367 35.9579 241.308 35.8343 241.729 36.322C242.149 36.8074 241.888 37.7199 241.146 38.3605C240.405 38.9987 239.462 39.1246 239.044 38.6369Z" fill="#F3F4F6"/>
<path d="M239.777 39.1403C239.739 39.1403 239.703 39.1403 239.667 39.1358C239.343 39.1134 239.073 38.9852 238.886 38.7717C238.382 38.1896 238.648 37.1648 239.489 36.4388C240.331 35.7129 241.384 35.6005 241.888 36.1826C242.393 36.7647 242.127 37.7896 241.283 38.5155C240.824 38.9111 240.27 39.1403 239.777 39.1403ZM240.997 36.2321C240.619 36.2321 240.156 36.4141 239.759 36.7535C239.118 37.3064 238.861 38.1065 239.201 38.4975C239.343 38.6616 239.548 38.7088 239.696 38.72C240.104 38.747 240.599 38.556 241.011 38.1986C241.654 37.6457 241.911 36.8456 241.571 36.4546C241.441 36.304 241.236 36.2298 240.997 36.2298V36.2321Z" fill="#A1B4D2"/>
<path d="M255.556 43.9657C255.526 43.9657 255.497 43.9612 255.47 43.9522C255.016 43.8107 254.653 43.7208 254.394 43.6825C254.237 43.6601 254.127 43.514 254.149 43.3544C254.172 43.1971 254.32 43.0847 254.478 43.1094C254.773 43.1521 255.153 43.2465 255.646 43.3994C255.799 43.4466 255.884 43.6084 255.837 43.7612C255.799 43.8848 255.684 43.9635 255.56 43.9635L255.556 43.9657Z" fill="#B1C0CC"/>
<path d="M288.067 54.4144C288.067 54.4144 288.053 54.4144 288.044 54.4144C287.324 54.3604 286.552 54.2728 285.753 54.1559C285.596 54.1335 285.486 53.9851 285.51 53.8278C285.533 53.6705 285.681 53.5603 285.839 53.5851C286.624 53.7019 287.38 53.7873 288.087 53.839C288.247 53.8503 288.366 53.9896 288.355 54.1492C288.344 54.302 288.218 54.4166 288.067 54.4166V54.4144ZM292.617 54.2323C292.482 54.2323 292.361 54.1357 292.334 53.9986C292.302 53.8413 292.406 53.6907 292.563 53.6592C293.344 53.5086 294.051 53.2861 294.663 52.994C294.807 52.9243 294.98 52.9872 295.048 53.1311C295.116 53.2749 295.055 53.448 294.911 53.5154C294.254 53.8278 293.5 54.066 292.671 54.2256C292.653 54.2301 292.635 54.2301 292.615 54.2301L292.617 54.2323ZM281.322 53.2524C281.3 53.2524 281.275 53.2502 281.252 53.2434C280.539 53.0659 279.792 52.8681 279.036 52.6546C278.882 52.6119 278.792 52.4501 278.835 52.2972C278.878 52.1444 279.038 52.0545 279.193 52.0972C279.942 52.3107 280.683 52.5063 281.392 52.6816C281.547 52.7198 281.642 52.8771 281.603 53.0322C281.57 53.1648 281.453 53.2524 281.322 53.2524ZM274.753 51.3083C274.721 51.3083 274.692 51.3038 274.661 51.2926C273.936 51.0499 273.213 50.7981 272.498 50.5442C272.347 50.4902 272.268 50.3239 272.322 50.1756C272.376 50.025 272.543 49.9463 272.691 50.0003C273.405 50.2543 274.125 50.5037 274.845 50.7465C274.996 50.7981 275.077 50.9622 275.027 51.1128C274.987 51.2342 274.874 51.3106 274.753 51.3106V51.3083ZM297.832 50.3104C297.798 50.3104 297.762 50.3037 297.728 50.2902C297.58 50.2318 297.506 50.0655 297.562 49.9149C297.807 49.2833 297.969 48.5641 298.041 47.7775C298.055 47.6179 298.192 47.5011 298.356 47.5168C298.516 47.5325 298.633 47.6719 298.617 47.8314C298.541 48.6698 298.365 49.4429 298.102 50.1239C298.057 50.2385 297.949 50.3082 297.832 50.3082V50.3104ZM268.312 48.9664C268.278 48.9664 268.242 48.9597 268.208 48.9462C267.486 48.6675 266.775 48.3888 266.079 48.1124C265.931 48.0539 265.859 47.8854 265.917 47.737C265.976 47.5887 266.145 47.5168 266.293 47.5752C266.986 47.8494 267.695 48.1281 268.418 48.4068C268.566 48.4652 268.64 48.6316 268.584 48.7799C268.539 48.8945 268.431 48.9642 268.314 48.9642L268.312 48.9664ZM261.947 46.4245C261.911 46.4245 261.873 46.4178 261.839 46.4043C261.097 46.1009 260.388 45.8154 259.722 45.548C259.573 45.4873 259.501 45.3187 259.562 45.1726C259.62 45.0243 259.789 44.9524 259.938 45.0131C260.604 45.2805 261.313 45.5682 262.055 45.8716C262.204 45.9323 262.276 46.1009 262.215 46.2492C262.17 46.3616 262.062 46.429 261.947 46.429V46.4245ZM297.994 43.5634C297.859 43.5634 297.737 43.469 297.71 43.3319C297.571 42.6375 297.391 41.9003 297.172 41.1406C297.13 40.9878 297.217 40.826 297.373 40.7833C297.528 40.7383 297.688 40.8282 297.731 40.981C297.951 41.7564 298.136 42.5093 298.277 43.2173C298.309 43.3746 298.208 43.5275 298.05 43.5589C298.03 43.5634 298.012 43.5657 297.992 43.5657L297.994 43.5634ZM295.962 37.0434C295.847 37.0434 295.739 36.9737 295.692 36.8614C295.408 36.1556 295.107 35.4544 294.798 34.7802C294.731 34.6341 294.796 34.4633 294.94 34.3958C295.084 34.3307 295.257 34.3936 295.325 34.5374C295.638 35.2207 295.944 35.9286 296.23 36.6433C296.288 36.7917 296.216 36.9603 296.067 37.0187C296.031 37.0322 295.995 37.0389 295.959 37.0389L295.962 37.0434ZM292.959 30.9077C292.86 30.9077 292.764 30.856 292.71 30.7639C292.329 30.1143 291.927 29.4671 291.512 28.8423C291.425 28.7097 291.461 28.5299 291.596 28.4422C291.728 28.3545 291.908 28.3905 291.996 28.5254C292.415 29.1592 292.822 29.8132 293.209 30.4717C293.29 30.6088 293.243 30.7863 293.106 30.8673C293.061 30.8942 293.009 30.9077 292.959 30.9077ZM228.759 27.4061C228.356 27.4061 227.942 27.3971 227.519 27.3791C227.359 27.3724 227.235 27.2375 227.242 27.078C227.249 26.9184 227.384 26.7948 227.544 26.8015C228.334 26.8352 229.087 26.8352 229.801 26.806C229.974 26.7925 230.096 26.9251 230.102 27.0825C230.109 27.242 229.985 27.3769 229.826 27.3836C229.479 27.3971 229.123 27.4039 228.761 27.4039L228.759 27.4061ZM234.313 26.7071C234.187 26.7071 234.072 26.624 234.034 26.4981C233.989 26.3453 234.079 26.1835 234.232 26.1408C234.979 25.925 235.679 25.653 236.307 25.3361C236.451 25.2642 236.624 25.3227 236.696 25.4643C236.768 25.6058 236.712 25.7812 236.568 25.8531C235.907 26.1857 235.175 26.4689 234.394 26.6959C234.367 26.7049 234.34 26.7071 234.313 26.7071ZM223.072 26.5453C223.04 26.5453 223.009 26.5408 222.977 26.5296C222.203 26.2599 221.483 25.9744 220.833 25.6778C220.686 25.6126 220.623 25.4395 220.688 25.2934C220.756 25.1474 220.929 25.0844 221.073 25.1496C221.708 25.4373 222.412 25.7182 223.169 25.9812C223.319 26.0329 223.4 26.1992 223.346 26.3498C223.306 26.4689 223.193 26.5431 223.074 26.5431L223.072 26.5453ZM289.039 25.3137C288.956 25.3137 288.873 25.2777 288.816 25.208C288.337 24.6304 287.835 24.0596 287.322 23.5067C287.214 23.3898 287.221 23.2055 287.338 23.0976C287.455 22.9897 287.637 22.9965 287.747 23.1134C288.267 23.673 288.776 24.2528 289.262 24.8372C289.363 24.9608 289.347 25.1429 289.224 25.244C289.17 25.2889 289.104 25.3114 289.039 25.3114V25.3137ZM217.214 23.1471C217.133 23.1471 217.052 23.1134 216.993 23.0459C216.408 22.3604 216.055 21.6323 215.944 20.8793C215.922 20.722 216.03 20.5737 216.187 20.5512C216.347 20.5287 216.494 20.6366 216.516 20.7962C216.611 21.439 216.921 22.0705 217.434 22.6706C217.538 22.792 217.524 22.974 217.403 23.0774C217.349 23.1246 217.281 23.1471 217.214 23.1471ZM239.807 22.8976C239.755 22.8976 239.703 22.8841 239.656 22.8549C239.519 22.7717 239.476 22.5942 239.559 22.4571C239.937 21.839 240.212 21.1603 240.378 20.4411C240.414 20.286 240.572 20.1871 240.725 20.2253C240.88 20.2613 240.977 20.4164 240.941 20.5714C240.761 21.3513 240.462 22.0863 240.052 22.7583C239.998 22.8482 239.901 22.8976 239.804 22.8976H239.807ZM284.252 20.4388C284.185 20.4388 284.117 20.4164 284.063 20.3692C283.496 19.8792 282.906 19.3982 282.31 18.9375C282.184 18.8409 282.159 18.6588 282.258 18.5307C282.355 18.4048 282.537 18.3801 282.666 18.479C283.271 18.9465 283.867 19.4342 284.444 19.9309C284.565 20.0343 284.579 20.2186 284.473 20.3399C284.417 20.4051 284.336 20.4411 284.254 20.4411L284.252 20.4388ZM217.959 17.0945C217.887 17.0945 217.812 17.0676 217.756 17.0114C217.641 16.899 217.639 16.717 217.752 16.6023C218.247 16.0966 218.845 15.591 219.529 15.0988C219.66 15.0044 219.84 15.0358 219.935 15.1639C220.027 15.2943 219.998 15.4741 219.869 15.5685C219.212 16.0405 218.638 16.5237 218.166 17.0069C218.109 17.0653 218.033 17.0945 217.959 17.0945ZM278.732 16.4001C278.68 16.4001 278.628 16.3866 278.581 16.3574C277.944 15.964 277.285 15.5797 276.618 15.2156C276.479 15.1392 276.427 14.9639 276.504 14.8223C276.58 14.683 276.758 14.6313 276.898 14.7077C277.57 15.0785 278.239 15.4673 278.885 15.8651C279.022 15.9483 279.063 16.1281 278.979 16.263C278.925 16.3506 278.831 16.4001 278.732 16.4001ZM240.462 16.2922C240.336 16.2922 240.219 16.209 240.182 16.0809C239.987 15.3954 239.719 14.6964 239.381 14.0042C239.312 13.8604 239.372 13.6873 239.514 13.6176C239.658 13.548 239.831 13.6087 239.901 13.7502C240.252 14.4717 240.534 15.2021 240.738 15.9213C240.781 16.0742 240.693 16.236 240.538 16.2787C240.511 16.2854 240.484 16.2899 240.459 16.2899L240.462 16.2922ZM223.661 13.3682C223.553 13.3682 223.448 13.3052 223.398 13.1996C223.331 13.0558 223.394 12.8827 223.54 12.8153C224.211 12.5051 224.922 12.2017 225.658 11.914C225.806 11.8556 225.975 11.9298 226.033 12.0781C226.092 12.2264 226.018 12.395 225.869 12.4534C225.145 12.7366 224.445 13.0333 223.785 13.339C223.747 13.3569 223.704 13.3659 223.664 13.3659L223.661 13.3682ZM272.658 13.2491C272.619 13.2491 272.581 13.2423 272.543 13.2243C271.856 12.9277 271.147 12.6422 270.439 12.3725C270.288 12.3163 270.213 12.1478 270.27 11.9994C270.326 11.8511 270.493 11.7747 270.643 11.8309C271.361 12.1028 272.077 12.3928 272.772 12.6917C272.919 12.7546 272.986 12.9254 272.923 13.0715C272.876 13.1816 272.77 13.2468 272.658 13.2468V13.2491ZM230.093 11.0285C229.967 11.0285 229.85 10.9454 229.814 10.8173C229.772 10.6644 229.859 10.5026 230.015 10.4599C230.737 10.2554 231.484 10.0598 232.236 9.87779C232.391 9.83959 232.549 9.93623 232.585 10.0913C232.623 10.2464 232.526 10.4037 232.371 10.4397C231.628 10.6195 230.888 10.8128 230.172 11.015C230.145 11.0218 230.118 11.0263 230.093 11.0263V11.0285ZM266.205 10.9566C266.178 10.9566 266.151 10.9521 266.127 10.9454C265.404 10.7386 264.666 10.5453 263.928 10.3655C263.772 10.3273 263.676 10.1722 263.714 10.0171C263.752 9.86206 263.91 9.76766 264.063 9.80362C264.808 9.98343 265.555 10.1812 266.284 10.3902C266.437 10.4352 266.527 10.5947 266.482 10.7476C266.446 10.8734 266.329 10.9566 266.203 10.9566H266.205ZM237.106 10.3925C237.025 10.3925 236.944 10.3588 236.888 10.2936C236.408 9.74294 235.882 9.1968 235.324 8.67538C235.207 8.56525 235.2 8.3832 235.31 8.26633C235.42 8.14946 235.603 8.14497 235.72 8.25285C236.006 8.5203 236.285 8.79449 236.552 9.07094C236.595 9.017 236.658 8.97879 236.73 8.9653C237.482 8.83944 238.245 8.72707 238.999 8.62593C239.161 8.60346 239.303 8.71583 239.325 8.8754C239.345 9.03273 239.235 9.17882 239.075 9.19905C238.375 9.29119 237.666 9.39683 236.966 9.51145C237.088 9.64405 237.207 9.7789 237.324 9.9115C237.43 10.0329 237.417 10.2149 237.295 10.3206C237.241 10.3677 237.174 10.3902 237.106 10.3902V10.3925ZM259.521 9.4665C259.505 9.4665 259.49 9.4665 259.474 9.462C258.731 9.34064 257.973 9.22826 257.221 9.13162C257.064 9.11139 256.951 8.9653 256.971 8.80798C256.992 8.64841 257.14 8.54053 257.295 8.55851C258.054 8.65515 258.819 8.76752 259.569 8.89114C259.726 8.91811 259.834 9.06644 259.807 9.22377C259.785 9.36536 259.661 9.4665 259.521 9.4665ZM243.581 8.7473C243.43 8.7473 243.302 8.63043 243.293 8.4776C243.281 8.31802 243.403 8.18092 243.563 8.16969C244.321 8.11799 245.093 8.07754 245.854 8.05057C246.032 8.03933 246.149 8.16969 246.153 8.32926C246.16 8.48883 246.034 8.62368 245.874 8.62818C245.12 8.65515 244.355 8.6956 243.603 8.7473C243.597 8.7473 243.59 8.7473 243.583 8.7473H243.581ZM252.711 8.70684C252.711 8.70684 252.7 8.70684 252.693 8.70684C251.946 8.66189 251.181 8.62818 250.42 8.60795C250.26 8.60346 250.134 8.47085 250.139 8.31128C250.143 8.15395 250.272 8.03034 250.429 8.03034C250.431 8.03034 250.434 8.03034 250.438 8.03034C251.203 8.05057 251.975 8.08428 252.729 8.13148C252.889 8.14047 253.01 8.27757 253.001 8.43714C252.992 8.58997 252.864 8.70909 252.713 8.70909L252.711 8.70684ZM231.921 5.95814C231.867 5.95814 231.813 5.94241 231.763 5.91094C231.142 5.50864 230.487 5.12207 229.819 4.76022C229.677 4.6838 229.625 4.5085 229.702 4.36915C229.778 4.22981 229.954 4.17587 230.093 4.25228C230.775 4.62087 231.441 5.01644 232.076 5.42548C232.211 5.51313 232.249 5.69069 232.162 5.82554C232.105 5.91094 232.013 5.95814 231.919 5.95814H231.921ZM225.799 2.92401C225.766 2.92401 225.732 2.91726 225.698 2.90603C225 2.64756 224.278 2.40708 223.551 2.19132C223.398 2.14637 223.31 1.98455 223.355 1.83172C223.4 1.67889 223.56 1.59123 223.715 1.63619C224.454 1.85644 225.19 2.09917 225.898 2.36213C226.047 2.41832 226.126 2.58463 226.069 2.73297C226.027 2.84984 225.916 2.92176 225.797 2.92176L225.799 2.92401ZM219.19 1.1732C219.174 1.1732 219.158 1.1732 219.14 1.1687C218.404 1.04284 217.65 0.93721 216.896 0.851805C216.737 0.833825 216.624 0.689985 216.642 0.532659C216.66 0.373086 216.806 0.260711 216.962 0.278691C217.725 0.364096 218.492 0.474224 219.237 0.600084C219.394 0.627054 219.5 0.77539 219.473 0.934963C219.448 1.07656 219.327 1.17545 219.187 1.17545L219.19 1.1732ZM210.093 0.615817C209.938 0.615817 209.809 0.494451 209.805 0.337126C209.798 0.177553 209.922 0.0427026 210.082 0.0359601C210.707 0.0112375 211.335 0 211.95 0H212.377C212.537 0.00224751 212.665 0.13485 212.665 0.294423C212.665 0.453996 212.519 0.593342 212.373 0.582104H211.95C211.342 0.582104 210.721 0.593342 210.104 0.615817C210.1 0.615817 210.098 0.615817 210.093 0.615817Z" fill="#B1C0CC"/>
<path d="M204.329 1.16871C204.188 1.16871 204.066 1.06533 204.044 0.923735C204.019 0.76641 204.129 0.618075 204.287 0.593352C204.674 0.534917 205.058 0.480977 205.439 0.431531C205.594 0.411304 205.743 0.521432 205.763 0.681005C205.783 0.83833 205.671 0.984418 205.513 1.00465C205.135 1.05409 204.755 1.10803 204.372 1.16647C204.359 1.16647 204.343 1.16871 204.329 1.16871Z" fill="#B1C0CC"/>
<path d="M178.532 94.4537C180.814 94.0132 182.83 93.0738 184.383 91.3095C186.544 88.8574 187.86 85.6368 189.235 82.715C188.864 82.7914 188.492 82.8701 188.119 82.9465C188.745 84.74 189.42 86.6167 189.397 88.545C189.366 91.06 187.833 92.7973 185.659 93.8941C184.993 94.229 186.01 94.3054 186.332 94.1436C188.443 93.0783 190.205 91.4443 190.475 88.9878C190.714 86.8167 189.944 84.6658 189.24 82.6498C189.114 82.288 188.234 82.6498 188.123 82.8813C186.069 87.246 184.032 92.9007 178.709 93.9278C178.221 94.0222 177.755 94.6043 178.532 94.456V94.4537Z" fill="#405B89"/>
<path d="M147.04 78.1301C143.372 84.3512 140.79 91.1364 139.381 98.216C139.368 98.2812 140.437 98.2385 140.5 97.9171C141.902 90.8689 144.49 84.1107 148.141 77.9188C148.195 77.8289 147.2 77.8604 147.04 78.1301Z" fill="#8393B0"/>
<path d="M139.314 82.5374C137.874 86.4077 136.78 90.388 136.051 94.4515C135.956 94.9729 137.097 94.8156 137.18 94.3503C137.898 90.3543 138.961 86.4391 140.376 82.6341C140.59 82.0565 139.474 82.1104 139.314 82.5374Z" fill="#8393B0"/>
<path d="M141.292 78.8088C140.95 79.3527 140.61 79.8989 140.268 80.4428C140.122 80.6743 140.394 80.8226 140.59 80.8406C140.851 80.8653 141.18 80.7462 141.324 80.517C141.666 79.9731 142.006 79.4269 142.348 78.883C142.494 78.6515 142.222 78.5032 142.026 78.4852C141.765 78.4605 141.436 78.5796 141.292 78.8088Z" fill="#8393B0"/>
<path d="M259.607 77.2962C260.059 71.6078 259.649 65.8991 258.385 60.3343C258.279 59.8713 257.158 60.159 257.266 60.6332C258.517 66.1374 258.929 71.7764 258.479 77.4041C258.436 77.93 259.571 77.748 259.607 77.2962Z" fill="#8393B0"/>
<path d="M261.466 61.7637C261.79 65.1867 261.884 68.6209 261.743 72.0573C261.725 72.4709 262.843 72.2349 262.857 71.9C263.001 68.4164 262.913 64.935 262.584 61.4648C262.555 61.1434 261.428 61.3749 261.466 61.7637Z" fill="#8393B0"/>
<path d="M176.13 35.5713C178.532 33.3215 181.615 31.8562 184.745 30.9167C187.453 30.1031 190.52 29.4985 193.331 30.1301C193.901 30.2582 194.447 29.4513 193.709 29.285C190.718 28.613 187.414 29.2468 184.529 30.1121C181.219 31.1055 177.922 32.645 175.381 35.0274C174.83 35.5443 175.705 35.9691 176.133 35.569L176.13 35.5713Z" fill="#8393B0"/>
<path d="M178.264 30.5751C180.744 28.3366 183.591 26.9431 188.4 26.815Z" fill="#F3F4F6"/>
<path d="M179.279 30.4964C181.788 28.2624 184.586 27.3859 187.919 27.2735C188.308 27.26 189.197 27.1072 189.415 26.7364C189.645 26.3453 189.215 26.3453 188.884 26.3565C184.556 26.5026 180.514 27.7477 177.251 30.6538C176.866 30.9976 177.591 31.0426 177.782 31.0336C178.277 31.0089 178.901 30.8336 179.279 30.4964Z" fill="#8393B0"/>
<path d="M203.418 138.489C202.907 144.216 201.795 149.861 200.101 155.354C200.024 155.602 201.116 155.465 201.206 155.166C202.912 149.634 204.023 143.951 204.537 138.188C204.552 138.013 203.45 138.136 203.418 138.487V138.489Z" fill="#405B89"/>
<path d="M205.939 140.818C205.279 143.861 204.557 146.89 203.774 149.902C203.702 150.181 204.802 150.023 204.881 149.72C205.666 146.706 206.389 143.679 207.046 140.636C207.109 140.343 206.004 140.516 205.939 140.818Z" fill="#405B89"/>
<path d="M43.9437 156.182C50.369 151.448 57.5166 147.774 65.1167 145.324C65.7851 145.108 65.6095 144.396 64.9276 144.616C57.1386 147.126 49.8041 150.868 43.2146 155.721C42.6047 156.17 43.5229 156.489 43.9437 156.182Z" fill="#8393B0"/>
<path d="M47.8214 150.311C50.4748 147.947 53.4387 145.994 56.6524 144.476C57.3231 144.16 56.2901 144.128 55.9908 144.27C52.642 145.852 49.5633 147.899 46.7974 150.36C46.5296 150.599 47.5986 150.509 47.8191 150.311H47.8214Z" fill="#8393B0"/>
<path d="M52.7454 173.072C56.2922 172.604 60.3341 171.885 63.3791 169.903C64.0138 169.489 63.073 169.204 62.6589 169.473C59.8818 171.28 56.0987 171.919 52.8692 172.343C52.2863 172.42 51.978 173.173 52.7454 173.072Z" fill="#8393B0"/>
<path d="M57.0035 175.243C58.5924 175.211 60.1542 174.784 61.6193 174.186C62.7266 173.734 64.0274 173.137 64.7588 172.148C65.1842 171.572 64.1354 171.354 63.8136 171.788C63.1902 172.631 62.0537 173.105 61.113 173.487C59.8369 174.006 58.4731 174.357 57.0935 174.384C56.4431 174.397 56.2451 175.256 57.0058 175.243H57.0035Z" fill="#8393B0"/>
<path d="M156.954 103.345C156.868 103.345 156.783 103.327 156.702 103.286C156.414 103.147 156.294 102.801 156.434 102.513L182.697 48.5012C182.837 48.2135 183.184 48.0944 183.472 48.2337C183.76 48.3731 183.879 48.7192 183.739 49.0069L157.476 103.019C157.377 103.226 157.17 103.345 156.954 103.345Z" fill="#8393B0"/>
<path d="M258.013 239.335C261.628 235.912 266.615 225.079 266.653 222.303C266.696 219.199 263.743 223.24 262.728 225.117C262.01 226.445 260.939 227.983 258.576 233.37C258.977 231.529 260.124 227.742 260.437 225.924C261.279 221.049 262.384 211.816 260.993 206.998C260.572 205.543 259.899 202.141 258.392 201.446C256.735 200.68 255.416 203.559 254.723 204.845C252.441 209.068 252.459 214.59 252.567 219.265C252.65 222.793 254.068 230.527 254.633 234.008C253.384 231.37 250.465 227.232 249.072 224.661C248.305 223.247 244.542 215.325 242.249 219.339C240.347 222.667 242.714 227.944 244.803 230.567C246.858 233.145 252.041 237.272 255.07 239.173C255.493 239.438 256.809 240.018 258.011 239.335H258.013Z" fill="#F3F4F6"/>
<path d="M256.769 239.944C256.002 239.944 255.308 239.665 254.917 239.418C252.052 237.62 246.732 233.453 244.576 230.747C242.51 228.153 239.982 222.726 241.997 219.197C242.478 218.354 243.068 217.927 243.752 217.927C243.763 217.927 243.774 217.927 243.783 217.927C245.667 217.963 247.614 221.245 249.101 224.101C249.191 224.274 249.266 224.418 249.324 224.526C249.914 225.614 250.771 226.973 251.681 228.414C252.513 229.733 253.364 231.082 254.05 232.291C254.026 232.147 254.001 232.001 253.976 231.851C253.326 228.007 252.344 222.198 252.275 219.276C252.155 214.176 252.225 208.852 254.464 204.71C254.523 204.6 254.588 204.476 254.658 204.346C255.439 202.86 256.746 200.374 258.511 201.188C259.926 201.842 260.615 204.462 261.072 206.198C261.144 206.469 261.209 206.714 261.268 206.921C262.899 212.574 261.097 223.787 260.719 225.976C260.539 227.018 260.098 228.666 259.665 230.273C260.755 227.98 261.47 226.735 261.992 225.832C262.17 225.522 262.328 225.247 262.472 224.984C262.497 224.939 264.97 220.552 266.329 220.905C266.957 221.069 266.946 222.004 266.941 222.312C266.903 225.164 261.907 236.049 258.212 239.548C258.194 239.564 258.176 239.578 258.155 239.591C257.698 239.849 257.219 239.948 256.767 239.948L256.769 239.944ZM243.754 218.505C243.286 218.505 242.877 218.826 242.501 219.483C240.727 222.589 242.913 227.729 245.03 230.387C246.986 232.842 252.025 236.921 255.225 238.928C255.281 238.964 256.605 239.775 257.84 239.101C261.369 235.73 266.327 224.998 266.363 222.301C266.372 221.654 266.237 221.476 266.185 221.463C265.706 221.339 264.009 223.362 262.983 225.256C262.836 225.526 262.677 225.803 262.497 226.117C261.79 227.344 260.723 229.196 258.839 233.487C258.779 233.622 258.628 233.691 258.484 233.646C258.342 233.601 258.259 233.455 258.29 233.309C258.461 232.523 258.765 231.394 259.085 230.201C259.519 228.583 259.969 226.908 260.149 225.874C260.523 223.706 262.31 212.607 260.714 207.079C260.653 206.867 260.588 206.618 260.514 206.341C260.111 204.811 259.436 202.249 258.268 201.709C257.003 201.123 255.858 203.307 255.171 204.611C255.101 204.743 255.036 204.869 254.975 204.982C252.804 208.998 252.738 214.237 252.855 219.258C252.923 222.139 253.902 227.924 254.548 231.752C254.69 232.59 254.818 233.343 254.917 233.961C254.939 234.103 254.854 234.24 254.717 234.282C254.579 234.325 254.431 234.26 254.37 234.13C253.661 232.63 252.405 230.641 251.192 228.718C250.278 227.27 249.414 225.901 248.818 224.796C248.759 224.688 248.683 224.539 248.591 224.362C247.841 222.921 245.557 218.534 243.774 218.5C243.768 218.5 243.761 218.5 243.754 218.5V218.505Z" fill="#A1B4D2"/>
<path d="M274.874 232.147C272.412 230.183 268.177 231.725 265.674 232.786C262.49 234.136 259.724 236.208 257.7 239.022C257.408 239.429 258.07 239.865 258.461 239.656C262.132 237.701 266.79 237.663 270.74 236.521C272.133 236.119 277.757 234.451 274.872 232.147H274.874Z" fill="#F3F4F6"/>
<path d="M258.234 240C257.957 240 257.683 239.865 257.516 239.676C257.298 239.427 257.28 239.112 257.467 238.854C259.456 236.085 262.181 233.952 265.562 232.518C268.433 231.3 272.541 229.913 275.054 231.92C275.77 232.491 276.072 233.091 275.95 233.702C275.725 234.837 273.999 235.878 270.823 236.797C269.345 237.224 267.747 237.503 266.199 237.773C263.579 238.229 260.869 238.701 258.599 239.91C258.484 239.971 258.358 239.998 258.234 239.998V240ZM271.784 231.498C269.448 231.498 266.867 232.594 265.789 233.051C262.508 234.444 259.866 236.51 257.939 239.191C257.921 239.218 257.905 239.238 257.955 239.297C258.047 239.402 258.232 239.452 258.329 239.402C260.68 238.15 263.437 237.669 266.102 237.204C267.632 236.937 269.217 236.66 270.664 236.242C274.535 235.123 275.282 234.1 275.383 233.59C275.46 233.206 275.228 232.797 274.694 232.372C273.893 231.731 272.865 231.498 271.784 231.498Z" fill="#A1B4D2"/>
<path d="M7.02167 229.385C5.51157 224.097 5.12673 204.312 5.75687 198.722C7.07118 187.091 9.47699 185.651 10.8566 196.801C11.6217 202.988 12.2924 217.947 8.56102 229.385" fill="#F3F4F6"/>
<path d="M7.02159 229.675C6.89556 229.675 6.77853 229.592 6.74252 229.466C5.19191 224.043 4.86784 204.02 5.46872 198.691C6.20239 192.189 7.21738 188.889 8.48443 188.883C8.91878 188.874 10.1678 188.876 11.1423 196.765C11.9975 203.669 12.4724 218.327 8.83326 229.475C8.78374 229.628 8.61946 229.711 8.46867 229.661C8.31564 229.612 8.23237 229.448 8.28188 229.297C11.8872 218.246 11.4146 203.694 10.5662 196.837C9.67945 189.674 8.6082 189.463 8.48668 189.463C7.96906 189.465 6.8708 191.425 6.04261 198.756C5.44397 204.053 5.76129 223.935 7.29615 229.306C7.33891 229.459 7.25114 229.621 7.0981 229.664C7.0711 229.67 7.04409 229.675 7.01933 229.675H7.02159Z" fill="#A1B4D2"/>
<path d="M8.13787 230.035C9.50844 226.108 12.7852 222.896 16.7394 221.6C17.41 221.379 18.1212 221.211 18.8189 221.316C19.5165 221.422 20.2029 221.851 20.437 222.519C20.7093 223.297 20.2907 224.18 19.6538 224.703C19.0169 225.227 18.2045 225.474 17.4168 225.719C13.987 226.785 10.4919 228.126 8.01184 230.722" fill="#F3F4F6"/>
<path d="M8.01412 231.008C7.9421 231.008 7.87009 230.981 7.81383 230.927C7.69905 230.817 7.69455 230.635 7.80482 230.518C7.87459 230.444 7.94661 230.369 8.02087 230.298C7.88359 230.237 7.81608 230.082 7.86559 229.938C9.25866 225.944 12.6254 222.643 16.6516 221.323C17.2615 221.123 18.065 220.907 18.8639 221.027C19.7371 221.157 20.4618 221.705 20.7116 222.42C21.0446 223.377 20.5135 224.366 19.8406 224.922C19.1722 225.472 18.3485 225.728 17.5496 225.976L17.5046 225.989C14.1243 227.041 10.6585 228.365 8.22567 230.916C8.16941 230.974 8.09289 231.006 8.01637 231.006L8.01412 231.008ZM18.3778 221.573C17.8354 221.573 17.2998 221.721 16.8294 221.874C13.0755 223.103 9.92031 226.133 8.52049 229.823C10.9758 227.625 14.1896 226.414 17.3313 225.438L17.3763 225.425C18.1212 225.193 18.8909 224.955 19.4693 224.477C19.9711 224.063 20.4032 223.301 20.1624 222.611C19.9824 222.096 19.4378 221.701 18.7761 221.6C18.6433 221.579 18.5106 221.57 18.3778 221.57V221.573Z" fill="#A1B4D2"/>
<path d="M8.01416 229.99C4.7374 224.488 5.22351 217.487 2.5949 211.648C2.41711 211.254 2.12904 210.807 1.69919 210.832C1.25584 210.857 1.02178 211.358 0.902507 211.785C-0.0224582 215.077 0.103571 218.655 1.25809 221.874C2.41261 225.092 4.58886 227.938 7.39526 229.895" fill="#F3F4F6"/>
<path d="M8.01406 230.28C7.91504 230.28 7.81826 230.228 7.76425 230.138C7.73274 230.086 7.70124 230.032 7.67198 229.981C7.66298 230.01 7.64947 230.037 7.63147 230.064C7.5392 230.194 7.35916 230.226 7.22863 230.136C4.37496 228.144 2.1582 225.247 0.983426 221.975C-0.189096 218.703 -0.319626 215.057 0.621092 211.711C0.882153 210.782 1.34126 210.564 1.68109 210.546C2.1582 210.524 2.54979 210.852 2.85586 211.533C4.05764 214.203 4.62252 217.138 5.16715 219.979C5.81755 223.368 6.49045 226.875 8.26162 229.846C8.34263 229.983 8.29762 230.16 8.16034 230.241C8.11308 230.268 8.06357 230.282 8.01181 230.282L8.01406 230.28ZM1.72835 211.12C1.72835 211.12 1.7171 211.12 1.7126 211.12C1.42453 211.135 1.25349 211.592 1.17922 211.863C0.272261 215.095 0.39604 218.617 1.52805 221.777C2.64656 224.895 4.7463 227.661 7.44693 229.581C5.86031 226.652 5.21891 223.315 4.59777 220.083C4.05989 217.275 3.50176 214.374 2.32699 211.767C2.19421 211.47 1.98041 211.12 1.7261 211.12H1.72835Z" fill="#A1B4D2"/>
<path d="M284.534 190.162C284.534 175.452 288.594 163.526 293.603 163.526C298.613 163.526 302.673 175.452 302.673 190.162H284.534Z" fill="#F3F4F6"/>
<path d="M302.673 190.449H284.533C284.374 190.449 284.243 190.319 284.243 190.159C284.243 175.063 288.355 163.236 293.601 163.236C298.847 163.236 302.961 175.063 302.961 190.159C302.961 190.319 302.83 190.449 302.67 190.449H302.673ZM284.824 189.872H302.382C302.331 175.479 298.412 163.816 293.603 163.816C288.794 163.816 284.876 175.479 284.824 189.872Z" fill="#A1B4D2"/>
<path d="M298.669 190.162C298.669 178.247 301.957 168.588 306.015 168.588C310.072 168.588 313.36 178.247 313.36 190.162H298.669Z" fill="#F3F4F6"/>
<path d="M313.363 190.449H298.671C298.512 190.449 298.381 190.319 298.381 190.159C298.381 177.899 301.734 168.296 306.017 168.296C310.3 168.296 313.653 177.899 313.653 190.159C313.653 190.319 313.523 190.449 313.363 190.449ZM298.96 189.872H313.07C313.016 178.461 309.807 168.875 306.015 168.875C302.223 168.875 299.011 178.461 298.96 189.872Z" fill="#A1B4D2"/>
</g>
<defs>
<clipPath id="clip0_4015_1300">
<rect width="313.651" height="240" fill="white"/>
</clipPath>
</defs>
</svg>
