<svg width="12" height="14" viewBox="0 0 12 14" fill="none" xmlns="http://www.w3.org/2000/svg">
<path fill-rule="evenodd" clip-rule="evenodd" d="M9.33331 3.66671C9.33331 5.50766 7.84093 7.00004 5.99998 7.00004C4.15903 7.00004 2.66665 5.50766 2.66665 3.66671C2.66665 1.82576 4.15903 0.333374 5.99998 0.333374C7.84093 0.333374 9.33331 1.82576 9.33331 3.66671ZM11.3865 10.24L11.6439 11.0825C12.0364 12.3677 11.075 13.6667 9.73109 13.6667H2.26199C0.918094 13.6667 -0.0433563 12.3677 0.349227 11.0825L0.606542 10.24C1.01654 8.90004 2.23321 8.00004 3.63654 8.00004H8.35654C9.75988 8.00004 10.9765 8.90004 11.3865 10.24Z" fill="#3F3E3E"/>
</svg>
