<svg width="24" height="24" viewBox="0 0 24 24" fill="none" xmlns="http://www.w3.org/2000/svg">
<path d="M18 11.3401C18 12.0304 17.4404 12.5901 16.75 12.5901C16.0596 12.5901 15.5 12.0304 15.5 11.3401C15.5 10.6497 16.0596 10.0901 16.75 10.0901C17.4404 10.0901 18 10.6497 18 11.3401Z" fill="#0A0909"/>
<path d="M13.5 14.5901H12.75V15.2794L14.0304 16.5597L12.9697 17.6204L12.0001 16.6507L11.0304 17.6204L9.96973 16.5597L11.25 15.2795V14.5901H10.5V13.0901H13.5V14.5901Z" fill="#0A0909"/>
<path d="M7.25 12.5901C7.94036 12.5901 8.5 12.0304 8.5 11.3401C8.5 10.6497 7.94036 10.0901 7.25 10.0901C6.55964 10.0901 6 10.6497 6 11.3401C6 12.0304 6.55964 12.5901 7.25 12.5901Z" fill="#0A0909"/>
<path fill-rule="evenodd" clip-rule="evenodd" d="M18.6394 19.9451L17.33 21.0164C16.4814 21.7107 15.4186 22.0901 14.3221 22.0901H9.67785C8.58135 22.0901 7.51862 21.7107 6.66997 21.0164L5.27541 19.8754L4.28039 20.8704L3.21973 19.8097L4.10869 18.9208L3.74212 18.6209C2.80771 17.8563 2.20591 16.7706 2.04403 15.5901H1V14.0901H2V3.04718C2 1.93355 3.34643 1.37584 4.13388 2.1633L7.29128 5.3207C8.77713 4.84513 10.3613 4.59008 12 4.59008C13.6387 4.59008 15.2229 4.84513 16.7087 5.3207L19.8661 2.1633C20.6536 1.37585 22 1.93355 22 3.04718V14.0901H23V15.5901H21.956C21.7941 16.7706 21.1923 17.8563 20.2579 18.6209L19.8061 18.9905L20.6053 19.7897L19.5447 20.8504L18.6394 19.9451ZM3.5 14.0901V3.65074L6.89459 7.04533L7.34094 6.88685C8.79595 6.37025 10.3661 6.09008 12 6.09008C13.6339 6.09008 15.204 6.37025 16.6591 6.88685L17.1054 7.04533L20.5 3.65074V14.0901H17.5V15.5901H20.4353C20.2877 16.3183 19.8932 16.9812 19.308 17.4599L18.7402 17.9245L17.1053 16.2897L16.0447 17.3504L17.5734 18.8791L16.3802 19.8554C15.7995 20.3305 15.0724 20.5901 14.3221 20.5901H9.67785C8.92762 20.5901 8.20048 20.3305 7.61983 19.8554L6.34136 18.8094L7.78039 17.3704L6.71973 16.3097L5.17464 17.8548L4.69198 17.4599C4.10682 16.9812 3.7123 16.3183 3.56472 15.5901H6.5V14.0901H3.5Z" fill="#0A0909"/>
</svg>
