<svg width="24" height="24" viewBox="0 0 24 24" fill="none" xmlns="http://www.w3.org/2000/svg">
<path d="M8.5 13C9.05228 13 9.5 12.5523 9.5 12C9.5 11.4477 9.05228 11 8.5 11C7.94772 11 7.5 11.4477 7.5 12C7.5 12.5523 7.94772 13 8.5 13Z" fill="#202023"/>
<path d="M16.5 12C16.5 12.5523 16.0523 13 15.5 13C14.9477 13 14.5 12.5523 14.5 12C14.5 11.4477 14.9477 11 15.5 11C16.0523 11 16.5 11.4477 16.5 12Z" fill="#202023"/>
<path fill-rule="evenodd" clip-rule="evenodd" d="M11.75 1C10.3335 1 9.16768 2.07005 9.01657 3.44623C8.0293 2.48878 6.45339 2.491 5.47472 3.46967C4.49183 4.45256 4.49183 6.05244 5.47472 7.03533L6.0694 7.63001C4.78333 9.04953 4 10.9331 4 13V19.25C4 20.7692 5.23079 22 6.75 22H8.6283C9.13262 22.6108 9.89571 23 10.75 23H13.25C14.1043 23 14.8674 22.6108 15.3717 22H17.25C18.7692 22 20 20.7692 20 19.25V13C20 10.8059 19.1173 8.81839 17.6875 7.37326L18.0254 7.03533C19.0083 6.05244 19.0083 4.45256 18.0254 3.46967C17.0467 2.49095 15.4707 2.48878 14.4834 3.44637C14.3324 2.07012 13.1666 1 11.75 1ZM11.75 2.5C11.0592 2.5 10.5 3.05921 10.5 3.75V5.14031C10.9859 5.0482 11.4873 5 12 5C12.3387 5 12.6724 5.02103 13 5.06186V3.75C13 3.05921 12.4408 2.5 11.75 2.5ZM9 5.58124V5.54238L7.97782 4.52841C7.57402 4.13122 6.93151 4.1342 6.53538 4.53033C6.13827 4.92744 6.13827 5.57756 6.53538 5.97467L7.17693 6.61622C7.73249 6.19588 8.34466 5.84641 9 5.58124ZM14.6087 5.43475C15.2975 5.67213 15.9437 6.00092 16.5328 6.40663L16.9648 5.97467C17.3619 5.57756 17.3619 4.92744 16.9648 4.53033C16.5686 4.13419 15.9261 4.13122 15.5223 4.52843L14.6087 5.43475ZM5.5 13C5.5 9.40921 8.40921 6.5 12 6.5C15.5908 6.5 18.5 9.40921 18.5 13V19.25C18.5 19.9408 17.9408 20.5 17.25 20.5H15.9888C15.9962 20.4177 16 20.3343 16 20.25V19.58C16 18.8522 15.7118 18.1511 15.1953 17.6347L14.1729 16.6123L15.0219 15.4599L12.8803 13.3247C12.3924 12.8373 11.6024 12.8369 11.1147 13.3247L9.0127 15.4267L9.86327 16.5761L8.80467 17.6347C8.28822 18.1511 8 18.8522 8 19.58V20.25C8 20.3343 8.00379 20.4177 8.0112 20.5H6.75C6.05921 20.5 5.5 19.9408 5.5 19.25V13ZM12.0364 19.5127L13.2731 17.8338L14.1347 18.6953C14.3682 18.9289 14.5 19.2478 14.5 19.58V20.25C14.5 20.9408 13.9408 21.5 13.25 21.5H10.75C10.0592 21.5 9.5 20.9408 9.5 20.25V19.58C9.5 19.2478 9.63178 18.9289 9.86533 18.6953L10.7654 17.7952L12.0364 19.5127ZM10.9873 15.5734L11.9978 14.5629L13.0481 15.6101L12.0336 16.9873L10.9873 15.5734Z" fill="#202023"/>
</svg>
