<svg width="22" height="20" viewBox="0 0 22 20" fill="none" xmlns="http://www.w3.org/2000/svg">
<path d="M8.5 9.5V9C8.5 8.44772 8.05228 8 7.5 8C6.94772 8 6.5 8.44771 6.5 9V9.5C6.5 10.0523 6.94772 10.5 7.5 10.5C8.05228 10.5 8.5 10.0523 8.5 9.5Z" fill="#0A0909"/>
<path d="M15.5 9V9.5C15.5 10.0523 15.0523 10.5 14.5 10.5C13.9477 10.5 13.5 10.0523 13.5 9.5V9C13.5 8.44771 13.9477 8 14.5 8C15.0523 8 15.5 8.44772 15.5 9Z" fill="#0A0909"/>
<path fill-rule="evenodd" clip-rule="evenodd" d="M2.13388 13.6945C2.61255 14.1732 3.2495 14.4572 3.92171 14.4955C4.02791 14.7305 4.1535 14.9573 4.29776 15.1737L5.03223 16.2754C5.38643 16.8067 5.90875 17.1907 6.50282 17.3757C6.56852 18.8361 7.77334 20 9.25 20H12.75C14.2267 20 15.4315 18.8361 15.4972 17.3757C16.0912 17.1907 16.6136 16.8067 16.9678 16.2754L17.7022 15.1737C17.8465 14.9573 17.9721 14.7305 18.0783 14.4955C18.7505 14.4572 19.3875 14.1732 19.8661 13.6945L21.1945 12.3661C21.7103 11.8504 22 11.1509 22 10.4216V6.07843C22 5.34908 21.7103 4.64961 21.1945 4.13388L17.9874 0.926777C17.304 0.24336 16.196 0.243359 15.5126 0.926777L15.4524 0.986894C14.1 0.352628 12.5913 0 11 0C9.4087 0 7.90001 0.352628 6.54755 0.986894L6.48744 0.926777C5.80402 0.24336 4.69598 0.243358 4.01256 0.926776L0.805456 4.13388C0.289731 4.64961 0 5.34908 0 6.07843V10.4216C0 11.1509 0.28973 11.8504 0.805456 12.3661L2.13388 13.6945ZM11 1.5C9.46119 1.5 8.01772 1.88322 6.75457 2.56089L6.26362 2.82428L5.42678 1.98744C5.32914 1.8898 5.17085 1.88981 5.07322 1.98744L1.86612 5.19454C1.6317 5.42896 1.5 5.74691 1.5 6.07843V10.4216C1.5 10.7531 1.6317 11.071 1.86612 11.3055L3.19454 12.6339C3.28822 12.7276 3.39524 12.8048 3.51113 12.8639C3.50373 12.7559 3.5 12.6476 3.5 12.5389V6.5H5V12.5389C5 13.1805 5.18992 13.8078 5.54584 14.3417L6.2803 15.4434C6.51214 15.7911 6.90243 16 7.32037 16H9.01393C9.4874 16 9.92023 15.7325 10.132 15.309L10.25 15.0729V14H9.5V12.5H12.5V14H11.75V15.0729L11.868 15.309C12.0798 15.7325 12.5126 16 12.9861 16H14.6796C15.0976 16 15.4879 15.7911 15.7197 15.4434L16.4542 14.3417C16.8101 13.8078 17 13.1805 17 12.5389V6.5H18.5V12.5389C18.5 12.6476 18.4963 12.7559 18.4889 12.8639C18.6048 12.8048 18.7118 12.7276 18.8055 12.6339L20.1339 11.3055C20.3683 11.071 20.5 10.7531 20.5 10.4216V6.07843C20.5 5.74691 20.3683 5.42896 20.1339 5.19454L16.9268 1.98744C16.8291 1.88981 16.6709 1.88981 16.5732 1.98744L15.7364 2.82428L15.2454 2.56089C13.9823 1.88322 12.5388 1.5 11 1.5ZM13.975 17.5H12.9861C12.2246 17.5 11.5108 17.1855 11 16.6522C10.4892 17.1855 9.77545 17.5 9.01393 17.5H8.025C8.14082 18.0706 8.64526 18.5 9.25 18.5H12.75C13.3547 18.5 13.8592 18.0706 13.975 17.5Z" fill="#0A0909"/>
</svg>
